#define font8x8_alt_width 8
#define font8x8_alt_height 2048
static unsigned char font8x8_alt_bits[] = {
   0x00, 0x00, 0x00, 0x00, 0x00, 0x00, 0x00, 0x00, 0x00, 0x00, 0x24, 0x24,
   0x00, 0x24, 0x18, 0x00, 0x3c, 0x7e, 0x5a, 0x5a, 0x7e, 0x5a, 0x66, 0x3c,
   0x00, 0x6c, 0xfe, 0xfe, 0x7c, 0x38, 0x10, 0x00, 0x10, 0x38, 0x7c, 0xfe,
   0x7c, 0x38, 0x10, 0x00, 0x00, 0x20, 0x20, 0xd8, 0xd8, 0x20, 0xf8, 0x00,
   0x10, 0x10, 0x38, 0x7c, 0x38, 0x10, 0x7c, 0x00, 0x00, 0x00, 0x00, 0x18,
   0x18, 0x00, 0x00, 0x00, 0xff, 0xc3, 0x81, 0x81, 0x81, 0x81, 0xc3, 0xff,
   0x00, 0x3c, 0x42, 0x42, 0x42, 0x42, 0x3c, 0x00, 0xff, 0xc3, 0xbd, 0xbd,
   0xbd, 0xbd, 0xc3, 0xff, 0x0e, 0x06, 0x0a, 0x70, 0x90, 0x90, 0x60, 0x00,
   0x70, 0x88, 0x88, 0x70, 0x20, 0xf8, 0x20, 0x20, 0x20, 0x30, 0x30, 0x28,
   0x20, 0xe0, 0xc0, 0x00, 0x20, 0x3a, 0x26, 0x22, 0x22, 0xe2, 0xce, 0x0c,
   0x91, 0x42, 0x18, 0x25, 0xa4, 0x18, 0x42, 0x89, 0xc0, 0xf0, 0xfc, 0xff,
   0xff, 0xfc, 0xf0, 0xc0, 0x03, 0x0f, 0x3f, 0xff, 0xff, 0x3f, 0x0f, 0x03,
   0x20, 0x70, 0xf8, 0x20, 0x20, 0xf8, 0x70, 0x20, 0x28, 0x28, 0x50, 0x50,
   0x00, 0xa0, 0x00, 0x00, 0x7c, 0xe8, 0xe8, 0x68, 0x28, 0x28, 0x28, 0x00,
   0x38, 0x44, 0x30, 0x48, 0x30, 0x88, 0x70, 0x00, 0x00, 0x00, 0x00, 0x00,
   0x00, 0xff, 0xff, 0xff, 0x20, 0x70, 0xf8, 0x20, 0xf8, 0x70, 0x20, 0xf8,
   0x20, 0x70, 0xf8, 0x20, 0x20, 0x20, 0x20, 0x20, 0x20, 0x20, 0x20, 0x20,
   0x20, 0xf8, 0x70, 0x20, 0x00, 0x04, 0x06, 0xff, 0x06, 0x04, 0x00, 0x00,
   0x00, 0x20, 0x60, 0xff, 0x60, 0x20, 0x00, 0x00, 0x80, 0x80, 0x80, 0x80,
   0x80, 0x80, 0x80, 0xff, 0x00, 0x24, 0x66, 0xff, 0x66, 0x24, 0x00, 0x00,
   0x18, 0x18, 0x3c, 0x3c, 0x7e, 0x7e, 0xff, 0xff, 0xff, 0xff, 0x7e, 0x7e,
   0x3c, 0x3c, 0x18, 0x18, 0x00, 0x00, 0x00, 0x00, 0x00, 0x00, 0x00, 0x00,
   0x20, 0x20, 0x40, 0x40, 0x00, 0x80, 0x00, 0x00, 0x50, 0x50, 0xa0, 0x00,
   0x00, 0x00, 0x00, 0x00, 0x28, 0x7c, 0x28, 0x50, 0xf8, 0x50, 0x00, 0x00,
   0x81, 0x42, 0x3c, 0x24, 0x24, 0x3c, 0x42, 0x81, 0x90, 0x90, 0x20, 0x20,
   0x48, 0x48, 0x00, 0x00, 0x60, 0x90, 0x40, 0x8c, 0x98, 0x68, 0x00, 0x00,
   0x40, 0x40, 0x80, 0x00, 0x00, 0x00, 0x00, 0x00, 0x40, 0x80, 0x80, 0x80,
   0x80, 0x40, 0x00, 0x00, 0x80, 0x40, 0x40, 0x40, 0x40, 0x80, 0x00, 0x00,
   0xa0, 0x40, 0xa0, 0x00, 0x00, 0x00, 0x00, 0x00, 0x00, 0x20, 0x20, 0xf8,
   0x20, 0x20, 0x00, 0x00, 0x00, 0x00, 0x00, 0x00, 0x00, 0x40, 0x40, 0x80,
   0x00, 0x00, 0x00, 0xf8, 0x00, 0x00, 0x00, 0x00, 0x00, 0x00, 0x00, 0x00,
   0x00, 0x80, 0x00, 0x00, 0x10, 0x20, 0x20, 0x40, 0x40, 0x80, 0x00, 0x00,
   0x00, 0x00, 0x60, 0x90, 0x90, 0x60, 0x00, 0x00, 0x00, 0x40, 0xc0, 0x40,
   0x40, 0xe0, 0x00, 0x00, 0x00, 0x60, 0x90, 0x20, 0x40, 0xf0, 0x00, 0x00,
   0x00, 0x60, 0x90, 0x20, 0x10, 0x90, 0x60, 0x00, 0x00, 0x10, 0x30, 0x50,
   0xf8, 0x10, 0x10, 0x00, 0x00, 0xf0, 0x80, 0xe0, 0x10, 0x90, 0x60, 0x00,
   0x60, 0x80, 0xe0, 0x90, 0x90, 0x60, 0x00, 0x00, 0x00, 0xf0, 0x10, 0x20,
   0x20, 0x40, 0x40, 0x00, 0x60, 0x90, 0x60, 0x90, 0x90, 0x60, 0x00, 0x00,
   0x00, 0x00, 0x60, 0x90, 0x90, 0x70, 0x10, 0x60, 0x00, 0x00, 0x80, 0x00,
   0x00, 0x80, 0x00, 0x00, 0x00, 0x00, 0x40, 0x00, 0x00, 0x40, 0x40, 0x80,
   0x00, 0x00, 0x0c, 0x30, 0xc0, 0x30, 0x0c, 0x00, 0x00, 0x00, 0xf8, 0x00,
   0x00, 0xf8, 0x00, 0x00, 0x00, 0x00, 0xc0, 0x30, 0x0c, 0x30, 0xc0, 0x00,
   0x60, 0x90, 0x10, 0x20, 0x40, 0x00, 0x80, 0x00, 0x3c, 0x42, 0x58, 0x54,
   0x44, 0x38, 0x00, 0x00, 0x20, 0x20, 0x50, 0x70, 0x88, 0x88, 0x00, 0x00,
   0xe0, 0x90, 0xe0, 0x90, 0x90, 0xe0, 0x00, 0x00, 0x60, 0x90, 0x80, 0x80,
   0x90, 0x60, 0x00, 0x00, 0xe0, 0x90, 0x90, 0x90, 0x90, 0xe0, 0x00, 0x00,
   0xf0, 0x80, 0xe0, 0x80, 0x80, 0xf0, 0x00, 0x00, 0xf0, 0x80, 0xe0, 0x80,
   0x80, 0x80, 0x00, 0x00, 0x70, 0x80, 0xb0, 0x90, 0xb0, 0x50, 0x00, 0x00,
   0x90, 0x90, 0xf0, 0x90, 0x90, 0x90, 0x00, 0x00, 0xe0, 0x40, 0x40, 0x40,
   0x40, 0xe0, 0x00, 0x00, 0x70, 0x10, 0x10, 0x90, 0x90, 0x60, 0x00, 0x00,
   0x90, 0xa0, 0xc0, 0xa0, 0x90, 0x90, 0x00, 0x00, 0x80, 0x80, 0x80, 0x80,
   0x80, 0xf0, 0x00, 0x00, 0x88, 0x88, 0xd8, 0xd8, 0xa8, 0xa8, 0x00, 0x00,
   0x90, 0xd0, 0xd0, 0xb0, 0xb0, 0x90, 0x00, 0x00, 0x60, 0x90, 0x90, 0x90,
   0x90, 0x60, 0x00, 0x00, 0xe0, 0x90, 0xe0, 0x80, 0x80, 0x80, 0x00, 0x00,
   0x60, 0x90, 0x90, 0x90, 0x90, 0x60, 0x10, 0x00, 0xe0, 0x90, 0xe0, 0x90,
   0x90, 0x90, 0x00, 0x00, 0x70, 0x80, 0x60, 0x10, 0x10, 0xe0, 0x00, 0x00,
   0xf8, 0x20, 0x20, 0x20, 0x20, 0x20, 0x00, 0x00, 0x90, 0x90, 0x90, 0x90,
   0x90, 0x60, 0x00, 0x00, 0x88, 0x88, 0x50, 0x50, 0x20, 0x20, 0x00, 0x00,
   0xa8, 0xa8, 0xa8, 0x50, 0x50, 0x50, 0x00, 0x00, 0xa0, 0xa0, 0x40, 0x40,
   0xa0, 0xa0, 0x00, 0x00, 0xa0, 0xa0, 0xa0, 0x40, 0x40, 0x40, 0x00, 0x00,
   0xe0, 0x20, 0x40, 0x40, 0x80, 0xe0, 0x00, 0x00, 0xe0, 0x80, 0x80, 0x80,
   0x80, 0xe0, 0x00, 0x00, 0x80, 0x40, 0x40, 0x20, 0x20, 0x10, 0x00, 0x00,
   0xe0, 0x20, 0x20, 0x20, 0x20, 0xe0, 0x00, 0x00, 0x40, 0xa0, 0x00, 0x00,
   0x00, 0x00, 0x00, 0x00, 0x00, 0x00, 0x00, 0x00, 0x00, 0x00, 0x00, 0xf8,
   0xc0, 0x20, 0x00, 0x00, 0x00, 0x00, 0x00, 0x00, 0x00, 0x00, 0x70, 0x90,
   0x90, 0x68, 0x00, 0x00, 0x80, 0x80, 0xa0, 0xd0, 0x90, 0xe0, 0x00, 0x00,
   0x00, 0x00, 0x60, 0x80, 0x80, 0x60, 0x00, 0x00, 0x10, 0x10, 0x70, 0x90,
   0xb0, 0x50, 0x00, 0x00, 0x00, 0x00, 0x60, 0xf0, 0x80, 0x70, 0x00, 0x00,
   0x00, 0x30, 0x40, 0xf0, 0x40, 0x40, 0x00, 0x00, 0x00, 0x00, 0x70, 0x90,
   0x90, 0x70, 0x10, 0x60, 0x80, 0x80, 0xa0, 0xd0, 0x90, 0x90, 0x00, 0x00,
   0x40, 0x00, 0xc0, 0x40, 0x40, 0xe0, 0x00, 0x00, 0x20, 0x00, 0x60, 0x20,
   0x20, 0x20, 0xc0, 0x00, 0x80, 0x80, 0xa0, 0xc0, 0xa0, 0x90, 0x00, 0x00,
   0x80, 0x80, 0x80, 0x80, 0x80, 0x40, 0x00, 0x00, 0x00, 0x00, 0xa8, 0xd4,
   0x94, 0x94, 0x00, 0x00, 0x00, 0x00, 0xa0, 0xd0, 0x90, 0x90, 0x00, 0x00,
   0x00, 0x00, 0x60, 0x90, 0x90, 0x60, 0x00, 0x00, 0x00, 0x00, 0xe0, 0x90,
   0x90, 0xe0, 0x80, 0x80, 0x00, 0x00, 0x70, 0x90, 0x90, 0x70, 0x10, 0x10,
   0x00, 0x00, 0xa0, 0xc0, 0x80, 0x80, 0x00, 0x00, 0x00, 0x00, 0x60, 0x80,
   0x20, 0xc0, 0x00, 0x00, 0x40, 0x40, 0xe0, 0x40, 0x40, 0x20, 0x00, 0x00,
   0x00, 0x00, 0x90, 0x90, 0xb0, 0x50, 0x00, 0x00, 0x00, 0x00, 0x90, 0x90,
   0xa0, 0x40, 0x00, 0x00, 0x00, 0x00, 0x88, 0xa8, 0xa8, 0x50, 0x00, 0x00,
   0x00, 0x00, 0xa0, 0x40, 0x40, 0xa0, 0x00, 0x00, 0x00, 0x00, 0x90, 0x90,
   0x90, 0x70, 0x10, 0x60, 0x00, 0x00, 0xf0, 0x20, 0x40, 0xf0, 0x00, 0x00,
   0x30, 0x40, 0x40, 0x80, 0x40, 0x40, 0x30, 0x00, 0x80, 0x80, 0x80, 0x80,
   0x80, 0x80, 0x80, 0x00, 0xc0, 0x20, 0x20, 0x10, 0x20, 0x20, 0xc0, 0x00,
   0x00, 0x00, 0x00, 0x64, 0x98, 0x00, 0x00, 0x00, 0x20, 0x50, 0x88, 0x88,
   0x88, 0xf8, 0x00, 0x00, 0x60, 0x90, 0x80, 0x80, 0x90, 0x60, 0x10, 0x20,
   0x90, 0x00, 0x90, 0x90, 0xb0, 0x50, 0x00, 0x00, 0x30, 0x00, 0x60, 0xf0,
   0x80, 0x70, 0x00, 0x00, 0x20, 0x50, 0x00, 0x60, 0x90, 0x68, 0x00, 0x00,
   0x90, 0x00, 0x70, 0x90, 0x90, 0x68, 0x00, 0x00, 0x40, 0x20, 0x00, 0x60,
   0x90, 0x68, 0x00, 0x00, 0x70, 0x70, 0x00, 0x70, 0x90, 0x68, 0x00, 0x00,
   0x00, 0x00, 0x60, 0x80, 0x80, 0x60, 0x10, 0x20, 0x60, 0x90, 0x60, 0xf0,
   0x80, 0x70, 0x00, 0x00, 0x90, 0x00, 0x60, 0xf0, 0x80, 0x70, 0x00, 0x00,
   0xc0, 0x00, 0x60, 0xf0, 0x80, 0x70, 0x00, 0x00, 0xa0, 0x00, 0xc0, 0x40,
   0x40, 0xe0, 0x00, 0x00, 0x40, 0xa0, 0x00, 0xc0, 0x40, 0xe0, 0x00, 0x00,
   0x80, 0x40, 0x00, 0xc0, 0x40, 0xe0, 0x00, 0x00, 0x50, 0x00, 0x20, 0x50,
   0x70, 0x88, 0x00, 0x00, 0x20, 0x50, 0x20, 0x50, 0x70, 0x88, 0x00, 0x00,
   0x30, 0x00, 0xf0, 0x80, 0xe0, 0x80, 0xf0, 0x00, 0xc0, 0x38, 0x64, 0xb8,
   0xa0, 0x5c, 0x00, 0x00, 0x3c, 0x30, 0x58, 0x70, 0x90, 0x9c, 0x00, 0x00,
   0x40, 0xa0, 0x00, 0x60, 0x90, 0x60, 0x00, 0x00, 0x90, 0x00, 0x60, 0x90,
   0x90, 0x60, 0x00, 0x00, 0xc0, 0x00, 0x60, 0x90, 0x90, 0x60, 0x00, 0x00,
   0x40, 0xa0, 0x00, 0x90, 0xb0, 0x50, 0x00, 0x00, 0xc0, 0x00, 0x90, 0x90,
   0xb0, 0x50, 0x00, 0x00, 0x90, 0x00, 0x90, 0x90, 0x90, 0x70, 0x10, 0x60,
   0x90, 0x60, 0x90, 0x90, 0x90, 0x60, 0x00, 0x00, 0x90, 0x00, 0x90, 0x90,
   0x90, 0x60, 0x00, 0x00, 0x00, 0x20, 0x70, 0xa0, 0xa0, 0x70, 0x20, 0x00,
   0x60, 0x90, 0x40, 0xf0, 0x40, 0x80, 0xf0, 0x00, 0x88, 0x50, 0x20, 0x70,
   0x20, 0x70, 0x20, 0x00, 0xc0, 0xa0, 0xc0, 0xbb, 0x92, 0x96, 0x00, 0x00,
   0x08, 0x10, 0x10, 0x38, 0x10, 0x10, 0x10, 0x20, 0x20, 0x40, 0x00, 0x60,
   0x90, 0x68, 0x00, 0x00, 0x40, 0x80, 0x00, 0xc0, 0x40, 0xe0, 0x00, 0x00,
   0x30, 0x00, 0x60, 0x90, 0x90, 0x60, 0x00, 0x00, 0x30, 0x00, 0x90, 0x90,
   0xb0, 0x50, 0x00, 0x00, 0x50, 0xa0, 0x00, 0xa0, 0xd0, 0x90, 0x00, 0x00,
   0x50, 0xa0, 0x00, 0xd0, 0xb0, 0x90, 0x00, 0x00, 0x60, 0xa0, 0xa0, 0x50,
   0x00, 0x00, 0x00, 0x00, 0x60, 0x90, 0x90, 0x60, 0x00, 0x00, 0x00, 0x00,
   0x10, 0x00, 0x20, 0x40, 0x80, 0x90, 0x60, 0x00, 0x00, 0x00, 0x00, 0xf8,
   0x80, 0x00, 0x00, 0x00, 0x00, 0x00, 0x00, 0xf8, 0x08, 0x00, 0x00, 0x00,
   0x40, 0xc4, 0x48, 0xe0, 0x0c, 0x22, 0x44, 0x0e, 0x40, 0xc4, 0x48, 0xe2,
   0x06, 0x2e, 0x42, 0x02, 0x20, 0x00, 0x40, 0x40, 0x80, 0x80, 0x00, 0x00,
   0x00, 0x28, 0x50, 0xa0, 0x50, 0x28, 0x00, 0x00, 0x00, 0xa0, 0x50, 0x28,
   0x50, 0xa0, 0x00, 0x00, 0x88, 0x00, 0x22, 0x00, 0x88, 0x00, 0x22, 0x00,
   0xaa, 0x55, 0xaa, 0x55, 0xaa, 0x55, 0xaa, 0x55, 0x77, 0xff, 0xdd, 0xff,
   0x77, 0xff, 0xdd, 0xff, 0x18, 0x18, 0x18, 0x18, 0x18, 0x18, 0x18, 0x18,
   0x18, 0x18, 0x18, 0xf8, 0xf8, 0x18, 0x18, 0x18, 0x18, 0x18, 0xf8, 0x18,
   0x18, 0xf8, 0x18, 0x18, 0x24, 0x24, 0x24, 0xe4, 0xe4, 0x24, 0x24, 0x24,
   0x00, 0x00, 0x00, 0xfc, 0xfc, 0x24, 0x24, 0x24, 0x00, 0x00, 0xf8, 0x18,
   0x18, 0xf8, 0x18, 0x18, 0x24, 0x24, 0xe4, 0x04, 0x04, 0xe4, 0x24, 0x24,
   0x24, 0x24, 0x24, 0x24, 0x24, 0x24, 0x24, 0x24, 0x00, 0x00, 0xfc, 0x04,
   0x04, 0xe4, 0x24, 0x24, 0x24, 0x24, 0xe4, 0x04, 0x04, 0xfc, 0x00, 0x00,
   0x24, 0x24, 0x24, 0xfc, 0xfc, 0x00, 0x00, 0x00, 0x18, 0x18, 0xf8, 0x18,
   0x18, 0xf8, 0x00, 0x00, 0x00, 0x00, 0x00, 0xf8, 0xf8, 0x18, 0x18, 0x18,
   0x18, 0x18, 0x18, 0x1f, 0x1f, 0x00, 0x00, 0x00, 0x18, 0x18, 0x18, 0xff,
   0xff, 0x00, 0x00, 0x00, 0x00, 0x00, 0x00, 0xff, 0xff, 0x18, 0x18, 0x18,
   0x18, 0x18, 0x18, 0x1f, 0x1f, 0x18, 0x18, 0x18, 0x00, 0x00, 0x00, 0xff,
   0xff, 0x00, 0x00, 0x00, 0x18, 0x18, 0x18, 0xff, 0xff, 0x18, 0x18, 0x18,
   0x18, 0x18, 0x1f, 0x18, 0x18, 0x1f, 0x18, 0x18, 0x24, 0x24, 0x24, 0x27,
   0x27, 0x24, 0x24, 0x24, 0x24, 0x24, 0x27, 0x20, 0x20, 0x3f, 0x00, 0x00,
   0x00, 0x00, 0x3f, 0x20, 0x20, 0x27, 0x24, 0x24, 0x24, 0x24, 0xe7, 0x00,
   0x00, 0xff, 0x00, 0x00, 0x00, 0x00, 0xff, 0x00, 0x00, 0xe7, 0x24, 0x24,
   0x24, 0x24, 0x27, 0x20, 0x20, 0x27, 0x24, 0x24, 0x00, 0x00, 0xff, 0x00,
   0x00, 0xff, 0x00, 0x00, 0x24, 0x24, 0xe7, 0x00, 0x00, 0xe7, 0x24, 0x24,
   0x18, 0x18, 0xff, 0x00, 0x00, 0xff, 0x00, 0x00, 0x24, 0x24, 0x24, 0xff,
   0xff, 0x00, 0x00, 0x00, 0x00, 0x00, 0xff, 0x00, 0x00, 0xff, 0x18, 0x18,
   0x00, 0x00, 0x00, 0xff, 0xff, 0x24, 0x24, 0x24, 0x24, 0x24, 0x24, 0x3f,
   0x3f, 0x00, 0x00, 0x00, 0x18, 0x18, 0x1f, 0x18, 0x18, 0x1f, 0x00, 0x00,
   0x00, 0x00, 0x1f, 0x18, 0x18, 0x1f, 0x18, 0x18, 0x00, 0x00, 0x00, 0x3f,
   0x3f, 0x24, 0x24, 0x24, 0x24, 0x24, 0x24, 0xff, 0xff, 0x24, 0x24, 0x24,
   0x18, 0x18, 0xff, 0x18, 0x18, 0xff, 0x18, 0x18, 0x18, 0x18, 0x18, 0xf8,
   0xf8, 0x00, 0x00, 0x00, 0x00, 0x00, 0x00, 0x1f, 0x1f, 0x18, 0x18, 0x18,
   0xff, 0xff, 0xff, 0xff, 0xff, 0xff, 0xff, 0xff, 0x00, 0x00, 0x00, 0x00,
   0xff, 0xff, 0xff, 0xff, 0xf0, 0xf0, 0xf0, 0xf0, 0xf0, 0xf0, 0xf0, 0xf0,
   0x0f, 0x0f, 0x0f, 0x0f, 0x0f, 0x0f, 0x0f, 0x0f, 0xff, 0xff, 0xff, 0xff,
   0x00, 0x00, 0x00, 0x00, 0x00, 0x00, 0x68, 0x90, 0x90, 0x68, 0x00, 0x00,
   0x00, 0xe0, 0x90, 0xe0, 0x90, 0xa0, 0x80, 0x00, 0x00, 0xf0, 0x80, 0x80,
   0x80, 0x80, 0x00, 0x00, 0x00, 0x00, 0xf8, 0x50, 0x50, 0x90, 0x00, 0x00,
   0xf8, 0x80, 0x40, 0x20, 0x40, 0x80, 0xf8, 0x00, 0x00, 0x00, 0x7c, 0x90,
   0x90, 0x60, 0x00, 0x00, 0x00, 0x00, 0x90, 0x90, 0xb0, 0x50, 0x10, 0x10,
   0x00, 0x00, 0xf8, 0x20, 0x20, 0x10, 0x00, 0x00, 0x00, 0x20, 0x70, 0xa8,
   0x70, 0x20, 0x00, 0x00, 0x00, 0x70, 0x88, 0xf8, 0x88, 0x70, 0x00, 0x00,
   0x70, 0x88, 0x88, 0x88, 0x50, 0xd8, 0x00, 0x00, 0x7c, 0x20, 0x70, 0x90,
   0x90, 0x60, 0x00, 0x00, 0x00, 0x00, 0x6c, 0x92, 0x92, 0x6c, 0x00, 0x00,
   0x00, 0x00, 0x30, 0xa8, 0x70, 0x20, 0x20, 0x00, 0x00, 0x60, 0x90, 0x40,
   0x90, 0x60, 0x00, 0x00, 0x00, 0x70, 0x88, 0x88, 0x88, 0x88, 0x00, 0x00,
   0x00, 0xf8, 0x00, 0xf8, 0x00, 0xf8, 0x00, 0x00, 0x20, 0x20, 0xf8, 0x20,
   0x20, 0xf8, 0x00, 0x00, 0xc0, 0x30, 0x0c, 0x30, 0xc0, 0xfc, 0x00, 0x00,
   0x0c, 0x30, 0xc0, 0x30, 0x0c, 0xfc, 0x00, 0x00, 0x0c, 0x1a, 0x18, 0x18,
   0x18, 0x18, 0x18, 0x18, 0x18, 0x18, 0x18, 0x18, 0x18, 0x18, 0x58, 0x30,
   0x00, 0x20, 0x00, 0xf8, 0x00, 0x20, 0x00, 0x00, 0x00, 0x64, 0x98, 0x00,
   0x64, 0x98, 0x00, 0x00, 0x60, 0x90, 0x90, 0x60, 0x00, 0x00, 0x00, 0x00,
   0x00, 0x00, 0x00, 0x18, 0x18, 0x00, 0x00, 0x00, 0x00, 0x00, 0x00, 0x18,
   0x18, 0x00, 0x00, 0x00, 0x07, 0x04, 0x08, 0xc8, 0x50, 0x50, 0x20, 0x20,
   0xa0, 0xd0, 0x90, 0x90, 0x00, 0x00, 0x00, 0x00, 0xc0, 0x20, 0x40, 0xe0,
   0x00, 0x00, 0x00, 0x00, 0x00, 0x00, 0x3c, 0x3c, 0x3c, 0x3c, 0x00, 0x00,
   0x00, 0x00, 0x00, 0x00, 0x00, 0x00, 0x00, 0x00 };
