#define font8x8_width 8
#define font8x8_height 2048
static unsigned char font8x8_bits[] = {
   0x00, 0x00, 0x00, 0x00, 0x00, 0x00, 0x00, 0x00, 0x7e, 0xc3, 0xa5, 0x81,
   0xbd, 0x99, 0xc3, 0x7e, 0x7e, 0xff, 0xdb, 0xff, 0xc3, 0xe7, 0xff, 0x7e,
   0x00, 0x6c, 0xfe, 0xfe, 0xfe, 0x7c, 0x38, 0x10, 0x00, 0x10, 0x38, 0x7c,
   0xfe, 0x7c, 0x38, 0x10, 0x00, 0x18, 0x18, 0x66, 0x66, 0x18, 0x18, 0x7e,
   0x00, 0x18, 0x18, 0x3c, 0x7e, 0x3c, 0x18, 0x7e, 0x00, 0x00, 0x18, 0x3c,
   0x3c, 0x18, 0x00, 0x00, 0xff, 0xff, 0xe7, 0xc3, 0xc3, 0xe7, 0xff, 0xff,
   0x00, 0x00, 0x18, 0x24, 0x24, 0x18, 0x00, 0x00, 0xff, 0xff, 0xe7, 0xdb,
   0xdb, 0xe7, 0xff, 0xff, 0x00, 0x0f, 0x03, 0x05, 0x79, 0xd8, 0xd8, 0x70,
   0x00, 0x3c, 0x66, 0x66, 0x3c, 0x18, 0x7e, 0x18, 0x00, 0x10, 0x1c, 0x10,
   0x10, 0x10, 0x70, 0x70, 0x00, 0x3c, 0x24, 0x24, 0x64, 0x64, 0x0c, 0x0c,
   0x12, 0x94, 0x40, 0x1b, 0xd8, 0x02, 0x29, 0x48, 0xc0, 0xf0, 0xfc, 0xff,
   0xff, 0xfc, 0xf0, 0xc0, 0x03, 0x0f, 0x3f, 0xff, 0xff, 0x3f, 0x0f, 0x03,
   0x10, 0x38, 0x54, 0x10, 0x10, 0x54, 0x38, 0x10, 0x6c, 0x6c, 0x6c, 0x6c,
   0x6c, 0x00, 0x6c, 0x00, 0x7f, 0xfa, 0xfa, 0xfa, 0x7a, 0x0a, 0x0a, 0x0a,
   0x00, 0x38, 0x40, 0x70, 0x28, 0x1c, 0x04, 0x38, 0x00, 0x00, 0x00, 0x00,
   0x00, 0x00, 0xff, 0xff, 0x10, 0x38, 0x54, 0x10, 0x10, 0x54, 0x38, 0xfe,
   0x18, 0x3c, 0x7e, 0xdb, 0x99, 0x18, 0x18, 0x18, 0x18, 0x18, 0x18, 0x99,
   0xdb, 0x7e, 0x3c, 0x18, 0x18, 0x0c, 0x06, 0xff, 0xff, 0x06, 0x0c, 0x18,
   0x18, 0x30, 0x60, 0xff, 0xff, 0x60, 0x30, 0x18, 0x00, 0x00, 0xc0, 0xc0,
   0xc0, 0xc0, 0xfe, 0x00, 0x00, 0x24, 0x42, 0xff, 0x42, 0x24, 0x00, 0x00,
   0x18, 0x18, 0x3c, 0x3c, 0x7e, 0x7e, 0xff, 0xff, 0xff, 0xff, 0x7e, 0x7e,
   0x3c, 0x3c, 0x18, 0x18, 0x00, 0x00, 0x00, 0x00, 0x00, 0x00, 0x00, 0x00,
   0x30, 0x30, 0x30, 0x30, 0x30, 0x00, 0x30, 0x00, 0x6c, 0x6c, 0x28, 0x00,
   0x00, 0x00, 0x00, 0x00, 0x00, 0x6c, 0xfe, 0x6c, 0x6c, 0xfe, 0x6c, 0x00,
   0x10, 0x7c, 0xd6, 0x70, 0x1c, 0xd6, 0x7c, 0x10, 0x00, 0x60, 0x6c, 0x18,
   0x30, 0x6c, 0x0c, 0x00, 0x78, 0xcc, 0xc0, 0x7e, 0xcc, 0xdc, 0x6c, 0x00,
   0x18, 0x18, 0x30, 0x00, 0x00, 0x00, 0x00, 0x00, 0x18, 0x30, 0x60, 0x60,
   0x60, 0x30, 0x18, 0x00, 0x18, 0x0c, 0x06, 0x06, 0x06, 0x0c, 0x18, 0x00,
   0x00, 0x66, 0x3c, 0x7e, 0x3c, 0x66, 0x00, 0x00, 0x00, 0x18, 0x18, 0x7e,
   0x18, 0x18, 0x00, 0x00, 0x00, 0x00, 0x00, 0x00, 0x00, 0x18, 0x18, 0x30,
   0x00, 0x00, 0x00, 0x7e, 0x00, 0x00, 0x00, 0x00, 0x00, 0x00, 0x00, 0x00,
   0x00, 0x18, 0x18, 0x00, 0x01, 0x03, 0x06, 0x0c, 0x18, 0x30, 0x60, 0xc0,
   0x00, 0x3c, 0x66, 0x6e, 0x76, 0x66, 0x3c, 0x00, 0x00, 0x18, 0x38, 0x18,
   0x18, 0x18, 0x3c, 0x00, 0x00, 0x3c, 0x66, 0x0c, 0x18, 0x32, 0x7e, 0x00,
   0x00, 0x7e, 0x06, 0x1e, 0x06, 0x66, 0x3c, 0x00, 0x00, 0x0c, 0x1c, 0x2c,
   0x7e, 0x0c, 0x1e, 0x00, 0x00, 0x7e, 0x60, 0x7c, 0x06, 0x66, 0x3c, 0x00,
   0x1c, 0x30, 0x60, 0x7c, 0x66, 0x66, 0x3c, 0x00, 0x00, 0x7e, 0x0c, 0x18,
   0x18, 0x18, 0x18, 0x00, 0x00, 0x3c, 0x66, 0x3c, 0x66, 0x66, 0x3c, 0x00,
   0x00, 0x3c, 0x66, 0x66, 0x3e, 0x06, 0x0c, 0x38, 0x00, 0x00, 0x18, 0x00,
   0x00, 0x18, 0x00, 0x00, 0x00, 0x00, 0x18, 0x00, 0x00, 0x18, 0x18, 0x30,
   0x0c, 0x18, 0x30, 0x60, 0x30, 0x18, 0x0c, 0x00, 0x00, 0x00, 0x7c, 0x00,
   0x00, 0x7c, 0x00, 0x00, 0x60, 0x30, 0x18, 0x0c, 0x18, 0x30, 0x60, 0x00,
   0x3c, 0x66, 0x06, 0x0c, 0x18, 0x00, 0x18, 0x00, 0x7c, 0xc6, 0xde, 0xde,
   0xde, 0xc0, 0x7e, 0x00, 0x3c, 0x66, 0x66, 0x7e, 0x66, 0x66, 0x66, 0x00,
   0xfc, 0x66, 0x66, 0x7c, 0x66, 0x66, 0xfc, 0x00, 0x3c, 0x66, 0x60, 0x60,
   0x60, 0x66, 0x3c, 0x00, 0xfc, 0x66, 0x66, 0x66, 0x66, 0x66, 0xfc, 0x00,
   0x7e, 0x32, 0x30, 0x3c, 0x30, 0x32, 0x7e, 0x00, 0x7e, 0x32, 0x30, 0x3c,
   0x30, 0x30, 0x78, 0x00, 0x3c, 0x66, 0x60, 0x6e, 0x66, 0x66, 0x3e, 0x00,
   0x66, 0x66, 0x66, 0x7e, 0x66, 0x66, 0x66, 0x00, 0x3c, 0x18, 0x18, 0x18,
   0x18, 0x18, 0x3c, 0x00, 0x3c, 0x0c, 0x0c, 0x0c, 0x0c, 0x6c, 0x38, 0x00,
   0x66, 0x6c, 0x78, 0x70, 0x78, 0x6c, 0x66, 0x00, 0xf0, 0x60, 0x60, 0x60,
   0x60, 0x60, 0xfe, 0x00, 0xc6, 0xee, 0xfe, 0xd6, 0xc6, 0xc6, 0xc6, 0x00,
   0x66, 0x76, 0x7e, 0x6e, 0x66, 0x66, 0x66, 0x00, 0x3c, 0x66, 0x66, 0x66,
   0x66, 0x66, 0x3c, 0x00, 0xfc, 0x66, 0x66, 0x7c, 0x60, 0x60, 0xf0, 0x00,
   0x3c, 0x66, 0x66, 0x66, 0x66, 0x66, 0x3c, 0x06, 0xfc, 0x66, 0x66, 0x7c,
   0x66, 0x66, 0xe6, 0x00, 0x3c, 0x66, 0x60, 0x3c, 0x06, 0x66, 0x3c, 0x00,
   0x7e, 0x18, 0x18, 0x18, 0x18, 0x18, 0x18, 0x00, 0x66, 0x66, 0x66, 0x66,
   0x66, 0x66, 0x3e, 0x00, 0x66, 0x66, 0x66, 0x66, 0x66, 0x3c, 0x18, 0x00,
   0xc6, 0xc6, 0xc6, 0xd6, 0xfe, 0xee, 0xc6, 0x00, 0xc6, 0x6c, 0x38, 0x38,
   0x38, 0x6c, 0xc6, 0x00, 0x66, 0x66, 0x66, 0x3c, 0x18, 0x18, 0x18, 0x00,
   0x7e, 0x66, 0x0c, 0x18, 0x30, 0x66, 0x7e, 0x00, 0x3c, 0x30, 0x30, 0x30,
   0x30, 0x30, 0x3c, 0x00, 0x80, 0xc0, 0x60, 0x30, 0x18, 0x0c, 0x06, 0x03,
   0x3c, 0x0c, 0x0c, 0x0c, 0x0c, 0x0c, 0x3c, 0x00, 0x18, 0x3c, 0x66, 0x00,
   0x00, 0x00, 0x00, 0x00, 0x00, 0x00, 0x00, 0x00, 0x00, 0x00, 0x00, 0xfe,
   0x30, 0x18, 0x0c, 0x00, 0x00, 0x00, 0x00, 0x00, 0x00, 0x00, 0x3c, 0x06,
   0x3e, 0x66, 0x3e, 0x00, 0x60, 0x60, 0x60, 0x7c, 0x66, 0x66, 0x7c, 0x00,
   0x00, 0x00, 0x3c, 0x66, 0x60, 0x66, 0x3c, 0x00, 0x06, 0x06, 0x06, 0x3e,
   0x66, 0x66, 0x3e, 0x00, 0x00, 0x00, 0x3c, 0x66, 0x7e, 0x60, 0x3c, 0x00,
   0x00, 0x1c, 0x30, 0x7c, 0x30, 0x30, 0x30, 0x00, 0x00, 0x00, 0x3e, 0x66,
   0x66, 0x3e, 0x06, 0x3c, 0x60, 0x60, 0x60, 0x7c, 0x66, 0x66, 0x66, 0x00,
   0x18, 0x00, 0x38, 0x18, 0x18, 0x18, 0x3c, 0x00, 0x18, 0x00, 0x38, 0x18,
   0x18, 0x18, 0x18, 0x70, 0x60, 0x60, 0x66, 0x6c, 0x78, 0x6c, 0x66, 0x00,
   0x38, 0x18, 0x18, 0x18, 0x18, 0x18, 0x3c, 0x00, 0x00, 0x00, 0xfc, 0xd6,
   0xd6, 0xd6, 0xd6, 0x00, 0x00, 0x00, 0x6c, 0x76, 0x66, 0x66, 0x66, 0x00,
   0x00, 0x00, 0x3c, 0x66, 0x66, 0x66, 0x3c, 0x00, 0x00, 0x00, 0x7c, 0x66,
   0x66, 0x7c, 0x60, 0x60, 0x00, 0x00, 0x3e, 0x66, 0x66, 0x3e, 0x06, 0x06,
   0x00, 0x00, 0x6c, 0x76, 0x60, 0x60, 0x60, 0x00, 0x00, 0x00, 0x3e, 0x60,
   0x3c, 0x06, 0x7c, 0x00, 0x18, 0x18, 0x3c, 0x18, 0x18, 0x18, 0x0c, 0x00,
   0x00, 0x00, 0x66, 0x66, 0x66, 0x66, 0x3e, 0x00, 0x00, 0x00, 0x66, 0x66,
   0x66, 0x3c, 0x18, 0x00, 0x00, 0x00, 0xc6, 0xd6, 0xd6, 0xfe, 0x6c, 0x00,
   0x00, 0x00, 0x66, 0x3c, 0x18, 0x3c, 0x66, 0x00, 0x00, 0x00, 0x66, 0x66,
   0x66, 0x3e, 0x06, 0x3c, 0x00, 0x00, 0x7e, 0x0c, 0x18, 0x30, 0x7e, 0x00,
   0x18, 0x30, 0x30, 0x60, 0x30, 0x30, 0x18, 0x00, 0x18, 0x18, 0x18, 0x18,
   0x18, 0x18, 0x18, 0x00, 0x18, 0x0c, 0x0c, 0x06, 0x0c, 0x0c, 0x18, 0x00,
   0x00, 0x00, 0x00, 0x76, 0xdc, 0x00, 0x00, 0x00, 0x00, 0x18, 0x3c, 0x66,
   0x66, 0x66, 0x7e, 0x00, 0x3c, 0x66, 0x60, 0x60, 0x66, 0x3c, 0x06, 0x1c,
   0x66, 0x00, 0x66, 0x66, 0x66, 0x66, 0x3e, 0x00, 0x0c, 0x18, 0x00, 0x3c,
   0x66, 0x7e, 0x60, 0x3c, 0x18, 0x24, 0x00, 0x3c, 0x06, 0x3e, 0x66, 0x3e,
   0x66, 0x00, 0x3c, 0x06, 0x3e, 0x66, 0x3e, 0x00, 0x30, 0x18, 0x00, 0x3c,
   0x06, 0x3e, 0x66, 0x3e, 0x18, 0x24, 0x18, 0x3c, 0x06, 0x3e, 0x66, 0x3e,
   0x00, 0x3c, 0x66, 0x60, 0x66, 0x3c, 0x06, 0x1c, 0x18, 0x24, 0x00, 0x3c,
   0x66, 0x7e, 0x60, 0x3c, 0x66, 0x00, 0x3c, 0x66, 0x7e, 0x60, 0x3c, 0x00,
   0x30, 0x18, 0x00, 0x3c, 0x66, 0x7e, 0x60, 0x3c, 0x6c, 0x00, 0x38, 0x18,
   0x18, 0x18, 0x3c, 0x00, 0x18, 0x24, 0x00, 0x38, 0x18, 0x18, 0x3c, 0x00,
   0x30, 0x18, 0x00, 0x38, 0x18, 0x18, 0x3c, 0x00, 0x66, 0x00, 0x3c, 0x66,
   0x7e, 0x66, 0x66, 0x00, 0x18, 0x24, 0x18, 0x3c, 0x66, 0x7e, 0x66, 0x00,
   0x0c, 0x18, 0x00, 0x7e, 0x30, 0x3c, 0x30, 0x7e, 0x00, 0x00, 0x7e, 0x1b,
   0x7f, 0xd8, 0x7e, 0x00, 0x7e, 0xd8, 0xd8, 0xfc, 0xd8, 0xd8, 0xde, 0x00,
   0x18, 0x24, 0x00, 0x3c, 0x66, 0x66, 0x3c, 0x00, 0x66, 0x00, 0x3c, 0x66,
   0x66, 0x66, 0x3c, 0x00, 0x30, 0x18, 0x00, 0x3c, 0x66, 0x66, 0x3c, 0x00,
   0x18, 0x24, 0x00, 0x66, 0x66, 0x66, 0x3e, 0x00, 0x30, 0x18, 0x00, 0x66,
   0x66, 0x66, 0x3e, 0x00, 0x66, 0x00, 0x66, 0x66, 0x66, 0x3e, 0x06, 0x3c,
   0x66, 0x3c, 0x66, 0x66, 0x66, 0x66, 0x3c, 0x00, 0x66, 0x00, 0x66, 0x66,
   0x66, 0x66, 0x3e, 0x00, 0x10, 0x7c, 0xd6, 0xd0, 0xd6, 0x7c, 0x10, 0x00,
   0x3c, 0x66, 0x60, 0xf8, 0x60, 0x66, 0xfc, 0x00, 0x66, 0x66, 0x3c, 0x18,
   0x3c, 0x18, 0x3c, 0x18, 0x00, 0xe0, 0xbc, 0xe9, 0x8a, 0x89, 0x8a, 0x00,
   0x0e, 0x1b, 0x1b, 0x38, 0x1c, 0xd8, 0xd8, 0x70, 0x0c, 0x18, 0x00, 0x3c,
   0x06, 0x3e, 0x66, 0x3e, 0x0c, 0x18, 0x00, 0x38, 0x18, 0x18, 0x3c, 0x00,
   0x0c, 0x18, 0x00, 0x3c, 0x66, 0x66, 0x3c, 0x00, 0x0c, 0x18, 0x00, 0x66,
   0x66, 0x66, 0x3e, 0x00, 0x3b, 0x6e, 0x00, 0x6c, 0x76, 0x66, 0x66, 0x00,
   0x3b, 0x6e, 0x00, 0x76, 0x7e, 0x6e, 0x66, 0x00, 0x3c, 0x6c, 0x3c, 0x00,
   0x7c, 0x00, 0x00, 0x00, 0x38, 0x6c, 0x38, 0x00, 0x7c, 0x00, 0x00, 0x00,
   0x18, 0x00, 0x18, 0x30, 0x60, 0x66, 0x3c, 0x00, 0x00, 0x00, 0xfe, 0xc0,
   0xc0, 0xc0, 0x00, 0x00, 0x00, 0x00, 0xfe, 0x06, 0x06, 0x06, 0x00, 0x00,
   0x40, 0x48, 0x50, 0x14, 0x2a, 0x24, 0x4e, 0x00, 0x40, 0x48, 0x50, 0x12,
   0x26, 0x2e, 0x42, 0x00, 0x18, 0x00, 0x18, 0x18, 0x18, 0x18, 0x18, 0x00,
   0x1b, 0x36, 0x6c, 0xd8, 0x6c, 0x36, 0x1b, 0x00, 0xd8, 0x6c, 0x36, 0x1b,
   0x36, 0x6c, 0xd8, 0x00, 0x92, 0x00, 0x49, 0x00, 0x92, 0x00, 0x49, 0x00,
   0xaa, 0x55, 0xaa, 0x55, 0xaa, 0x55, 0xaa, 0x55, 0xff, 0xb6, 0xff, 0x6d,
   0xff, 0xb6, 0xff, 0x6d, 0x18, 0x18, 0x18, 0x18, 0x18, 0x18, 0x18, 0x18,
   0x18, 0x18, 0x18, 0xf8, 0xf8, 0x18, 0x18, 0x18, 0x18, 0x18, 0xf8, 0x18,
   0x18, 0xf8, 0x18, 0x18, 0x24, 0x24, 0x24, 0xe4, 0xe4, 0x24, 0x24, 0x24,
   0x00, 0x00, 0x00, 0xfc, 0xfc, 0x24, 0x24, 0x24, 0x00, 0x00, 0xf8, 0x18,
   0x18, 0xf8, 0x18, 0x18, 0x24, 0x24, 0xe4, 0x04, 0x04, 0xe4, 0x24, 0x24,
   0x24, 0x24, 0x24, 0x24, 0x24, 0x24, 0x24, 0x24, 0x00, 0x00, 0xfc, 0x04,
   0x04, 0xe4, 0x24, 0x24, 0x24, 0x24, 0xe4, 0x04, 0x04, 0xfc, 0x00, 0x00,
   0x24, 0x24, 0x24, 0xfc, 0xfc, 0x00, 0x00, 0x00, 0x18, 0x18, 0xf8, 0x18,
   0x18, 0xf8, 0x00, 0x00, 0x00, 0x00, 0x00, 0xf8, 0xf8, 0x18, 0x18, 0x18,
   0x18, 0x18, 0x18, 0x1f, 0x1f, 0x00, 0x00, 0x00, 0x18, 0x18, 0x18, 0xff,
   0xff, 0x00, 0x00, 0x00, 0x00, 0x00, 0x00, 0xff, 0xff, 0x18, 0x18, 0x18,
   0x18, 0x18, 0x18, 0x1f, 0x1f, 0x18, 0x18, 0x18, 0x00, 0x00, 0x00, 0xff,
   0xff, 0x00, 0x00, 0x00, 0x18, 0x18, 0x18, 0xff, 0xff, 0x18, 0x18, 0x18,
   0x18, 0x18, 0x1f, 0x18, 0x18, 0x1f, 0x18, 0x18, 0x24, 0x24, 0x24, 0x27,
   0x27, 0x24, 0x24, 0x24, 0x24, 0x24, 0x27, 0x20, 0x20, 0x3f, 0x00, 0x00,
   0x00, 0x00, 0x3f, 0x20, 0x20, 0x27, 0x24, 0x24, 0x24, 0x24, 0xe7, 0x00,
   0x00, 0xff, 0x00, 0x00, 0x00, 0x00, 0xff, 0x00, 0x00, 0xe7, 0x24, 0x24,
   0x24, 0x24, 0x27, 0x20, 0x20, 0x27, 0x24, 0x24, 0x00, 0x00, 0xff, 0x00,
   0x00, 0xff, 0x00, 0x00, 0x24, 0x24, 0xe7, 0x00, 0x00, 0xe7, 0x24, 0x24,
   0x18, 0x18, 0xff, 0x00, 0x00, 0xff, 0x00, 0x00, 0x24, 0x24, 0x24, 0xff,
   0xff, 0x00, 0x00, 0x00, 0x00, 0x00, 0xff, 0x00, 0x00, 0xff, 0x18, 0x18,
   0x00, 0x00, 0x00, 0xff, 0xff, 0x24, 0x24, 0x24, 0x24, 0x24, 0x24, 0x3f,
   0x3f, 0x00, 0x00, 0x00, 0x18, 0x18, 0x1f, 0x18, 0x18, 0x1f, 0x00, 0x00,
   0x00, 0x00, 0x1f, 0x18, 0x18, 0x1f, 0x18, 0x18, 0x00, 0x00, 0x00, 0x3f,
   0x3f, 0x24, 0x24, 0x24, 0x24, 0x24, 0x24, 0xff, 0xff, 0x24, 0x24, 0x24,
   0x18, 0x18, 0xff, 0x18, 0x18, 0xff, 0x18, 0x18, 0x18, 0x18, 0x18, 0xf8,
   0xf8, 0x00, 0x00, 0x00, 0x00, 0x00, 0x00, 0x1f, 0x1f, 0x18, 0x18, 0x18,
   0xff, 0xff, 0xff, 0xff, 0xff, 0xff, 0xff, 0xff, 0x00, 0x00, 0x00, 0x00,
   0xff, 0xff, 0xff, 0xff, 0xf0, 0xf0, 0xf0, 0xf0, 0xf0, 0xf0, 0xf0, 0xf0,
   0x0f, 0x0f, 0x0f, 0x0f, 0x0f, 0x0f, 0x0f, 0x0f, 0xff, 0xff, 0xff, 0xff,
   0x00, 0x00, 0x00, 0x00, 0x00, 0x76, 0xdc, 0xd8, 0xd8, 0xdc, 0x76, 0x00,
   0xf8, 0x6c, 0x78, 0x6c, 0x66, 0x66, 0xec, 0x00, 0x7e, 0x32, 0x30, 0x30,
   0x30, 0x30, 0x78, 0x00, 0xfe, 0x6c, 0x6c, 0x6c, 0x6c, 0x6c, 0x6c, 0x00,
   0x7e, 0x66, 0x30, 0x18, 0x30, 0x66, 0x7e, 0x00, 0x00, 0x3f, 0x6c, 0x6c,
   0x6c, 0x6c, 0x38, 0x00, 0x00, 0x6c, 0x6c, 0x6c, 0x6c, 0x7c, 0x60, 0x60,
   0x00, 0x7e, 0x5a, 0x18, 0x18, 0x18, 0x18, 0x00, 0x7e, 0x3c, 0x66, 0x66,
   0x66, 0x3c, 0x7e, 0x00, 0x3c, 0x66, 0x66, 0x7e, 0x66, 0x66, 0x3c, 0x00,
   0x7c, 0xc6, 0xc6, 0xc6, 0x6c, 0x28, 0xee, 0x00, 0x3c, 0x60, 0x38, 0x6c,
   0x6c, 0x6c, 0x38, 0x00, 0x00, 0x00, 0x7e, 0xdb, 0xdb, 0x7e, 0x00, 0x00,
   0x06, 0x0c, 0x7e, 0xdb, 0xdb, 0x7e, 0x30, 0x60, 0x3e, 0x60, 0x60, 0x7c,
   0x60, 0x60, 0x3e, 0x00, 0x3c, 0x66, 0x66, 0x66, 0x66, 0x66, 0x66, 0x00,
   0x00, 0x7e, 0x00, 0x7e, 0x00, 0x7e, 0x00, 0x00, 0x18, 0x18, 0x7e, 0x18,
   0x18, 0x00, 0x7e, 0x00, 0x30, 0x18, 0x0c, 0x18, 0x30, 0x00, 0x7e, 0x00,
   0x0c, 0x18, 0x30, 0x18, 0x0c, 0x00, 0x7e, 0x00, 0x0e, 0x1b, 0x1b, 0x18,
   0x18, 0x18, 0x18, 0x18, 0x18, 0x18, 0x18, 0x18, 0x18, 0xd8, 0xd8, 0x70,
   0x18, 0x18, 0x00, 0x7e, 0x00, 0x18, 0x18, 0x00, 0x00, 0x76, 0xdc, 0x00,
   0x76, 0xdc, 0x00, 0x00, 0x38, 0x6c, 0x6c, 0x38, 0x00, 0x00, 0x00, 0x00,
   0x00, 0x00, 0x00, 0x18, 0x18, 0x00, 0x00, 0x00, 0x00, 0x00, 0x00, 0x18,
   0x00, 0x00, 0x00, 0x00, 0x00, 0x1f, 0x18, 0x18, 0x18, 0xd8, 0x78, 0x38,
   0x78, 0x6c, 0x6c, 0x6c, 0x6c, 0x00, 0x00, 0x00, 0x38, 0x6c, 0x0c, 0x30,
   0x7c, 0x00, 0x00, 0x00, 0x00, 0x00, 0x3c, 0x3c, 0x3c, 0x3c, 0x00, 0x00,
   0x00, 0x00, 0x00, 0x00, 0x00, 0x00, 0x00, 0x00 };
